<svg width="327" height="332" viewBox="0 0 327 332" fill="none" xmlns="http://www.w3.org/2000/svg">
<path d="M81.3701 302.286C85.2108 302.286 88.2392 303.092 90.4551 304.705C92.671 306.305 93.896 308.509 94.1299 311.316L85.8389 311.538C85.7527 310.947 85.5183 310.423 85.1367 309.968C84.7552 309.5 84.2568 309.137 83.6416 308.879C83.0384 308.608 82.3363 308.472 81.5361 308.472C80.4897 308.472 79.597 308.682 78.8584 309.1C78.1324 309.519 77.7749 310.085 77.7871 310.799C77.7748 311.353 77.9968 311.833 78.4521 312.239C78.92 312.645 79.7512 312.971 80.9453 313.218L86.4111 314.252C89.2426 314.793 91.3478 315.692 92.7266 316.948C94.1177 318.204 94.8197 319.866 94.832 321.934C94.8196 323.879 94.2405 325.572 93.0957 327.013C91.9631 328.453 90.4119 329.573 88.4424 330.373C86.4727 331.161 84.2196 331.555 81.6836 331.555C77.6335 331.554 74.4386 330.723 72.0996 329.061C69.7733 327.387 68.4438 325.147 68.1113 322.341L77.0303 322.119C77.2273 323.153 77.7387 323.941 78.5635 324.482C79.3882 325.024 80.4406 325.295 81.7207 325.295C82.8779 325.295 83.8196 325.079 84.5459 324.648C85.2721 324.217 85.6419 323.645 85.6543 322.931C85.642 322.291 85.3587 321.78 84.8047 321.398C84.2508 321.004 83.3828 320.697 82.2012 320.475L77.252 319.533C74.4083 319.016 72.2905 318.062 70.8994 316.671C69.5086 315.267 68.8198 313.483 68.832 311.316C68.8197 309.42 69.324 307.802 70.3457 306.46C71.3675 305.106 72.8206 304.071 74.7041 303.357C76.5876 302.643 78.8097 302.286 81.3701 302.286ZM132.571 302.286C134.59 302.286 136.437 302.6 138.111 303.228C139.785 303.856 141.232 304.786 142.45 306.016C143.669 307.247 144.617 308.768 145.294 310.577C145.971 312.374 146.31 314.437 146.31 316.763V319.016H127.4V319.257C127.4 320.414 127.629 321.43 128.084 322.304C128.539 323.165 129.186 323.836 130.023 324.316C130.86 324.796 131.858 325.036 133.015 325.036C133.815 325.036 134.541 324.925 135.193 324.704C135.846 324.482 136.406 324.156 136.874 323.725C137.342 323.295 137.693 322.765 137.927 322.138L146.218 322.377C145.873 324.236 145.116 325.854 143.946 327.233C142.789 328.6 141.268 329.665 139.385 330.429C137.501 331.179 135.323 331.554 132.849 331.555C129.882 331.555 127.32 330.97 125.166 329.801C123.024 328.619 121.375 326.938 120.218 324.76C119.073 322.568 118.5 319.964 118.5 316.948C118.5 314.018 119.079 311.458 120.236 309.266C121.394 307.063 123.025 305.351 125.13 304.133C127.235 302.902 129.715 302.286 132.571 302.286ZM213.974 302.286C215.993 302.286 217.839 302.6 219.514 303.228C221.188 303.856 222.634 304.786 223.853 306.016C225.071 307.247 226.019 308.768 226.696 310.577C227.373 312.374 227.712 314.437 227.712 316.763V319.016H208.803V319.257C208.803 320.414 209.031 321.43 209.486 322.304C209.942 323.165 210.589 323.836 211.426 324.316C212.263 324.796 213.26 325.036 214.417 325.036C215.217 325.036 215.943 324.925 216.596 324.704C217.248 324.482 217.809 324.156 218.276 323.725C218.744 323.295 219.095 322.765 219.329 322.138L227.62 322.377C227.275 324.236 226.518 325.854 225.349 327.233C224.191 328.6 222.671 329.665 220.787 330.429C218.904 331.179 216.725 331.554 214.251 331.555C211.284 331.555 208.723 330.97 206.568 329.801C204.427 328.619 202.777 326.938 201.62 324.76C200.475 322.568 199.902 319.964 199.902 316.948C199.902 314.018 200.481 311.458 201.639 309.266C202.796 307.063 204.427 305.351 206.532 304.133C208.637 302.902 211.118 302.286 213.974 302.286ZM51.2891 302.286C53.0986 302.286 54.7666 302.502 56.293 302.932C57.8195 303.351 59.1497 303.967 60.2822 304.779C61.4146 305.579 62.2888 306.564 62.9043 307.733C63.5321 308.903 63.8457 310.239 63.8457 311.741V331.019H55.3516V327.067H55.1299C54.6252 328.027 53.9791 328.84 53.1914 329.505C52.4158 330.169 51.4982 330.668 50.4395 331.001C49.3932 331.333 48.2115 331.499 46.8945 331.499C45.0849 331.499 43.4776 331.198 42.0742 330.595C40.6834 329.979 39.582 329.056 38.7695 327.825C37.9694 326.582 37.5684 325.024 37.5684 323.153C37.5684 321.577 37.8454 320.247 38.3994 319.164C38.9534 318.081 39.7169 317.2 40.6895 316.523C41.662 315.846 42.7828 315.336 44.0508 314.991C45.3187 314.634 46.6731 314.393 48.1133 314.27C49.7255 314.123 51.0241 313.969 52.0088 313.809C52.9936 313.637 53.7082 313.396 54.1514 313.089C54.6067 312.769 54.8339 312.319 54.834 311.741V311.648C54.8339 310.7 54.5079 309.968 53.8555 309.451C53.203 308.934 52.3227 308.676 51.2148 308.676C50.0208 308.676 49.0603 308.934 48.334 309.451C47.6079 309.968 47.1462 310.682 46.9492 311.593L38.6211 311.298C38.8673 309.574 39.5017 308.036 40.5234 306.681C41.5575 305.315 42.9732 304.243 44.7705 303.468C46.5801 302.68 48.7532 302.286 51.2891 302.286ZM244.715 302.286C246.524 302.286 248.192 302.502 249.719 302.932C251.245 303.351 252.575 303.967 253.708 304.779C254.84 305.579 255.715 306.564 256.33 307.733C256.958 308.903 257.271 310.239 257.271 311.741V331.019H248.777V327.067H248.556C248.051 328.027 247.405 328.84 246.617 329.505C245.842 330.169 244.924 330.668 243.865 331.001C242.819 331.333 241.637 331.499 240.32 331.499C238.511 331.499 236.903 331.198 235.5 330.595C234.109 329.979 233.008 329.056 232.195 327.825C231.395 326.582 230.994 325.024 230.994 323.153C230.994 321.577 231.271 320.247 231.825 319.164C232.379 318.081 233.143 317.2 234.115 316.523C235.088 315.846 236.209 315.336 237.477 314.991C238.744 314.634 240.099 314.393 241.539 314.27C243.151 314.123 244.45 313.969 245.435 313.809C246.419 313.637 247.134 313.396 247.577 313.089C248.032 312.769 248.26 312.319 248.26 311.741V311.648C248.26 310.7 247.934 309.968 247.281 309.451C246.629 308.934 245.748 308.676 244.641 308.676C243.447 308.676 242.486 308.934 241.76 309.451C241.034 309.968 240.572 310.682 240.375 311.593L232.047 311.298C232.293 309.574 232.928 308.036 233.949 306.681C234.983 305.315 236.399 304.243 238.196 303.468C240.006 302.68 242.179 302.286 244.715 302.286ZM110.172 302.655H115.287V309.304H110.172V322.1C110.172 322.654 110.258 323.103 110.431 323.448C110.615 323.78 110.88 324.021 111.225 324.169C111.569 324.304 111.982 324.372 112.462 324.372C112.807 324.372 113.17 324.341 113.552 324.279C113.945 324.205 114.241 324.144 114.438 324.095L115.805 330.613C115.374 330.736 114.764 330.89 113.977 331.075C113.201 331.26 112.271 331.376 111.188 331.426C109.07 331.524 107.254 331.277 105.74 330.686C104.238 330.083 103.087 329.148 102.287 327.88C101.549 326.691 101.167 325.216 101.143 323.454V309.304H97.3936V302.655H101.143V295.86H110.172V302.655ZM288.465 302.655H293.58V309.304H288.465V322.1C288.465 322.654 288.551 323.103 288.724 323.448C288.908 323.78 289.173 324.021 289.518 324.169C289.862 324.304 290.275 324.372 290.755 324.372C291.1 324.372 291.463 324.341 291.845 324.279C292.238 324.205 292.534 324.144 292.73 324.095L294.098 330.613C293.667 330.736 293.057 330.89 292.27 331.075C291.494 331.26 290.564 331.376 289.48 331.426C287.363 331.524 285.547 331.277 284.033 330.686C282.531 330.083 281.38 329.148 280.58 327.88C279.842 326.691 279.46 325.216 279.436 323.454V309.304H275.687V302.655H279.436V295.86H288.465V302.655ZM9.14062 308.38H24.043V293.201H33.165V331.019H24.043V315.822H9.14062V331.019H0V293.201H9.14062V308.38ZM171.234 308.38H186.137V293.201H195.259V331.019H186.137V315.822H171.234V331.019H162.094V293.201H171.234V308.38ZM271.822 331.019H262.793V293.201H271.822V331.019ZM307.531 307.863H307.845C308.485 306.115 309.532 304.748 310.984 303.763C312.449 302.779 314.24 302.286 316.357 302.286C318.352 302.286 320.088 302.73 321.565 303.616C323.042 304.49 324.188 305.727 325 307.327C325.825 308.927 326.231 310.799 326.219 312.941V331.019H317.188V314.714C317.201 313.138 316.807 311.907 316.007 311.02C315.207 310.134 314.08 309.691 312.628 309.691C311.68 309.691 310.843 309.901 310.116 310.319C309.402 310.725 308.842 311.31 308.436 312.073C308.042 312.836 307.839 313.759 307.826 314.843V331.019H298.797V293.201H307.531V307.863ZM54.8896 318.241C54.6312 318.376 54.3174 318.499 53.9482 318.61C53.5913 318.721 53.1973 318.825 52.7666 318.924C52.3357 319.022 51.892 319.109 51.4365 319.182C50.9812 319.256 50.5444 319.324 50.126 319.386C49.2765 319.521 48.5495 319.73 47.9463 320.013C47.3555 320.297 46.9001 320.666 46.5801 321.122C46.2725 321.565 46.1182 322.094 46.1182 322.71C46.1182 323.645 46.4508 324.359 47.1152 324.851C47.7923 325.344 48.6485 325.591 49.6826 325.591C50.6551 325.591 51.5292 325.393 52.3047 324.999C53.0925 324.605 53.7207 324.063 54.1885 323.374C54.6561 322.672 54.8896 321.859 54.8896 320.936V318.241ZM248.315 318.241C248.057 318.376 247.743 318.499 247.374 318.61C247.017 318.721 246.623 318.825 246.192 318.924C245.762 319.022 245.318 319.109 244.862 319.182C244.407 319.256 243.97 319.324 243.552 319.386C242.702 319.521 241.975 319.73 241.372 320.013C240.781 320.297 240.326 320.666 240.006 321.122C239.698 321.565 239.544 322.094 239.544 322.71C239.544 323.645 239.877 324.359 240.541 324.851C241.218 325.344 242.074 325.591 243.108 325.591C244.081 325.591 244.955 325.393 245.73 324.999C246.518 324.605 247.147 324.063 247.614 323.374C248.082 322.672 248.315 321.859 248.315 320.936V318.241ZM214.158 308.805C213.149 308.805 212.244 309.033 211.443 309.488C210.643 309.931 210.01 310.541 209.542 311.316C209.098 312.041 208.856 312.859 208.812 313.772H219.311C219.298 312.812 219.07 311.956 218.627 311.205C218.184 310.454 217.574 309.869 216.799 309.451C216.036 309.02 215.155 308.805 214.158 308.805ZM132.756 308.805C131.746 308.805 130.841 309.033 130.041 309.488C129.241 309.931 128.607 310.541 128.14 311.316C127.696 312.041 127.454 312.859 127.409 313.772H137.908C137.896 312.812 137.668 311.956 137.225 311.205C136.781 310.454 136.172 309.869 135.396 309.451C134.633 309.02 133.753 308.805 132.756 308.805ZM24.6406 0.194153C25.2345 -0.205167 25.513 0.099346 25.792 0.325989C39.014 11.0668 52.9517 20.3929 67.0947 29.3192C90.4912 44.0855 114.351 57.7603 138.329 71.1531C143.538 74.0624 147.724 78.2592 150.804 83.9783C155.331 92.3858 159.794 100.842 164.367 109.216C169.559 118.723 176.336 126.018 185.626 129.635C188.819 130.878 188.882 130.834 190.672 130.056C185.777 126.485 181.051 123.078 176.905 118.878C177.193 117.906 177.8 117.915 178.268 117.722C184.974 114.958 191.687 112.207 198.668 110.527C208.564 108.146 218.322 108.908 228.013 112.159C233.332 113.944 238.183 116.555 241.985 121.427C242.377 121.928 243.008 122.493 243.012 123.033C243.028 125.456 244.589 126.396 245.903 127.594C249.468 130.841 251.673 134.968 251.562 140.403C251.502 143.326 250.93 146.18 249.785 149.308C247.668 146.124 245.202 144.043 242.136 143.474C230.993 141.407 220.727 143.344 212.359 153.152C208.888 157.221 205.556 161.458 202.042 165.474C189.608 179.686 175.401 190.575 158.816 196.863C152.877 199.115 146.805 200.658 140.533 201.107C136.754 201.378 132.987 201.898 129.194 201.9C127.89 201.901 126.908 202.517 125.966 203.58C117.543 213.08 109.085 222.539 100.63 232C95.8114 237.391 90.9549 242.736 86.1631 248.16C84.6224 249.904 83.0025 250.32 80.9033 249.777C72.7616 247.672 65.9447 242.645 59.5312 236.69C58.34 235.584 58.8895 233.04 60.5986 231.755C63.7934 229.352 67.0192 227.006 70.2441 224.66C74.0148 221.917 77.8009 219.202 81.5742 216.464C82.1126 216.073 82.6986 215.721 83.0068 214.87C82.1926 214.567 81.5297 215.024 80.8525 215.32C73.3117 218.622 65.8452 222.144 58.4199 225.788C56.4644 226.748 54.472 226.848 52.2998 226.133C45.8953 223.352 41.3259 218.201 37.5635 211.894C36.7288 210.495 36.7414 209.771 38.3916 209.236C49.5661 205.616 60.7145 201.891 71.6904 197.478C91.8229 189.385 110.846 178.606 128.752 165.093C129.046 164.87 129.341 164.645 129.619 164.396C129.896 164.148 130.201 163.887 130.1 163.394C130.002 162.921 129.666 162.805 129.308 162.724C117.099 159.976 107.245 151.909 97.7764 143.119C88.5417 134.546 80.2311 124.825 72.9004 113.973C72.6462 113.597 72.3638 113.242 72.1426 112.841C71.8688 112.344 71.3902 111.883 71.7031 111.185C72.0095 110.503 72.5839 110.641 73.1006 110.637C78.637 110.589 84.1774 110.678 89.709 110.461C96.6972 110.186 103.679 109.662 110.663 109.242C111.181 109.211 111.714 109.188 112.039 108.439C111.104 107.531 109.912 107.734 108.896 107.611C103.167 106.919 97.4156 106.493 91.6865 105.809C83.7548 104.863 75.8506 103.693 68.1475 101.106C59.6822 98.2632 53.5728 91.8781 48.8135 83.4549C47.6526 81.4004 46.6279 79.237 45.584 77.0945C45.28 76.4706 44.8596 75.8117 45.2529 74.8006C63.4835 80.0375 81.71 85.4314 100.616 89.2068C100.025 87.7018 99.1494 87.6218 98.4561 87.3133C86.0293 81.7815 73.3053 77.2594 60.7959 72.0086C56.7885 70.3265 52.8395 68.4711 48.9258 66.4969C39.0864 61.5336 33.6994 52.4758 31.3994 40.5057C31.1071 38.9844 31.1092 38.9833 31.4199 37.657C50.1192 49.0136 69.8548 57.2465 89.7383 65.0867C88.4987 63.0467 86.7376 61.9613 84.9512 60.9432C71.9816 53.5514 59.1557 45.8387 46.7373 37.2195C42.7173 34.4294 38.8221 31.4158 35.0137 28.2322C29.0374 23.2364 26.2831 16.1308 25.1211 7.93243C24.7522 5.32967 24.4084 2.71092 24.6406 0.194153ZM212.793 162.703C213.736 161.558 214.292 161.978 215.103 162.782C221.12 168.754 226.434 175.527 231.394 182.718C236.23 189.73 240.677 197.107 245.655 203.991C251.613 212.229 258.443 219.302 265.682 225.875C268.681 228.598 271.815 231.134 274.565 234.36C273.958 235.61 272.897 235.892 271.94 236.22C268.224 237.49 264.437 238.047 260.561 237.64C259.4 237.519 258.444 236.963 257.541 236.165C251.494 230.821 246.11 224.58 240.597 218.513C240.037 217.898 239.468 216.837 238.689 218.494C241.324 222.564 244.162 226.493 247.142 230.473C248.535 232.346 249.87 234.087 251.141 235.891C251.536 236.453 252.016 237.142 251.747 237.951C251.462 238.807 250.714 238.708 250.086 238.778C246.594 239.17 243.099 238.956 239.606 238.797C236.076 238.636 234.033 235.693 231.977 232.853C226.613 225.448 221.848 217.49 216.888 209.713C216.401 208.95 215.953 208.128 214.932 207.917C214.921 209.723 215.7 211.112 216.369 212.499C219.875 219.766 223.779 226.741 227.575 233.795C228.321 235.181 228.957 236.621 229.459 238.256C228.052 239.011 226.762 238.47 225.54 238.358C219.39 237.795 213.415 236.439 208.269 232.006C204.576 228.825 202.231 224.387 200.221 219.655C199.276 217.432 198.37 215.187 197.412 212.972C197.049 212.134 196.695 211.2 195.277 211.241C195.822 217.072 198.099 222.219 199.481 227.735C197.169 228.38 195.121 227.962 193.16 227.031C183.184 222.297 173.916 216.15 165.927 207.513C164.94 206.446 164.061 205.227 163.199 204.013C162.25 202.674 162.282 201.778 163.88 200.961C171.274 197.177 178.397 192.744 185.307 187.835C195.299 180.736 204.631 172.613 212.793 162.703ZM242.882 138.056C239.897 134.733 235.404 134.516 232.338 137.399C235.734 137.949 239.158 137.154 242.882 138.056ZM227.072 121.854C225.785 121.471 224.569 120.574 223.112 120.876C223.186 123.494 223.1 125.976 225.45 127.131C227.09 127.936 229.445 126.894 231.124 124.662C230.139 123.218 228.632 122.775 227.072 121.854Z" fill="#F97316"/>
</svg>
