<svg version="1.1" id="Layer_1" xmlns="http://www.w3.org/2000/svg" xmlns:xlink="http://www.w3.org/1999/xlink" x="0px" y="0px" height="100%" 
	 width="100%" viewBox="0 0 1024 1024" enable-background="new 0 0 1024 1024" xml:space="preserve">
<path fill="#f97316" opacity="1.000000" stroke="none" 
	d="
M544.112854,741.842529 
	C577.611572,765.795349 614.429382,781.599487 653.808350,791.763977 
	C681.760376,798.978821 710.208008,802.538025 739.013428,804.064819 
	C768.643188,805.635254 797.841980,803.775879 826.484070,795.646179 
	C832.117798,794.047119 837.525269,791.883667 842.268066,788.347839 
	C843.970154,787.078918 845.902222,785.952881 846.445068,783.589233 
	C845.158569,781.439941 843.089600,782.196228 841.500610,782.497864 
	C813.521423,787.809082 785.258484,788.250427 756.944397,787.330933 
	C695.805908,785.345459 637.068909,773.939148 583.255188,743.020874 
	C555.465454,727.054504 531.369751,706.399963 507.320160,685.484436 
	C481.752136,663.248413 454.704407,642.951294 422.738953,630.384949 
	C398.569275,620.883301 373.086700,615.099487 349.115814,605.197815 
	C322.827545,594.338867 296.090454,584.342834 271.288635,570.136353 
	C269.121368,568.894897 267.000427,567.566467 264.906586,566.203857 
	C254.989548,559.750183 253.417084,556.223022 256.223511,544.570801 
	C261.291412,523.528992 270.170624,504.018494 280.563080,485.130798 
	C282.337616,481.905762 284.542084,481.277924 287.976379,482.211792 
	C311.230835,488.535126 334.584320,494.446503 358.252533,499.072021 
	C371.947021,501.748352 385.573181,504.774384 399.230743,507.640045 
	C403.857971,508.610901 408.077667,511.458160 412.965271,510.891754 
	C413.985352,509.177338 413.047485,508.026947 412.228546,507.068909 
	C407.272491,501.270935 402.376984,495.755554 394.548279,493.175995 
	C366.096680,483.801208 337.467529,474.964783 308.107880,469.085297 
	C287.691681,464.996796 268.123444,458.716400 249.538376,449.743408 
	C219.644165,435.310242 201.305328,410.744629 191.155823,379.616821 
	C189.935547,375.874329 191.217514,372.684174 193.744370,369.997131 
	C196.313736,367.264832 199.479156,367.701202 202.530060,369.038422 
	C215.794800,374.852631 228.803314,381.258881 242.467133,386.146301 
	C282.640686,400.515900 323.538330,412.044525 365.919281,417.819672 
	C370.687683,418.469452 375.417938,419.416168 380.149506,420.311829 
	C382.279999,420.715088 384.153351,420.806427 385.116486,418.356140 
	C386.010437,416.081848 384.494019,415.007111 382.978424,413.881531 
	C373.783447,407.052765 362.740540,404.743256 352.162872,401.336029 
	C308.948090,387.415863 265.182465,375.139832 222.912262,358.397614 
	C183.686768,342.861359 160.698090,314.117462 153.829117,272.489227 
	C153.721085,271.834534 153.699585,271.163391 153.668076,270.498505 
	C153.440063,265.686554 152.561127,260.690552 157.982742,257.743225 
	C163.644653,254.665268 166.608688,259.141235 170.006226,262.049072 
	C186.390305,276.071472 205.381180,285.698914 224.676666,294.871307 
	C264.049408,313.587769 305.410278,326.851837 346.924591,339.720337 
	C358.048309,343.168457 369.097504,346.856384 380.205994,350.354584 
	C382.353027,351.030731 384.506714,352.281403 387.206421,351.170288 
	C386.613525,347.277069 383.174744,346.118805 380.729126,344.167999 
	C356.816589,325.093536 329.211517,313.387451 300.683838,303.149200 
	C271.549957,292.693420 242.510620,281.791931 215.245819,266.898987 
	C195.554672,256.143005 177.056549,243.738022 163.032547,225.722458 
	C150.380844,209.469772 144.352005,190.683487 141.616730,170.561493 
	C140.555511,162.754700 139.829193,155.029297 142.172363,147.344009 
	C144.036285,141.230576 147.326508,139.492752 153.528152,141.223999 
	C156.961456,142.182449 160.032974,143.839981 162.737503,146.099426 
	C198.554977,176.022354 239.666656,196.780991 282.204224,215.033951 
	C319.541260,231.055374 357.107941,246.551910 394.271912,262.962555 
	C416.972900,272.986725 439.162476,284.170074 458.213898,300.586426 
	C472.782318,313.139862 483.376373,328.084015 486.742096,347.358246 
	C488.064667,354.932129 487.621429,362.670624 486.951996,370.288818 
	C485.644165,385.172333 483.557068,399.993713 482.492950,414.890808 
	C481.145020,433.760132 486.387054,451.103485 496.333069,467.095520 
	C505.214111,481.375244 521.416626,484.945770 538.297485,480.101318 
	C543.997070,478.465607 549.131714,475.186340 555.501831,475.505524 
	C560.858215,475.773865 564.977661,477.649567 567.532654,482.194244 
	C574.244202,494.132385 578.525513,507.165497 584.028381,519.651123 
	C585.179749,522.263489 583.299500,523.180298 581.350647,524.031372 
	C573.652893,527.393066 565.382263,528.547546 557.276733,530.345032 
	C555.009277,530.847900 552.701721,531.284241 550.527527,532.069397 
	C545.972107,533.714478 545.413818,535.776550 548.565979,539.422424 
	C553.829651,545.510498 560.873657,546.208252 568.245239,545.483398 
	C575.731628,544.747314 583.070984,543.295410 589.879089,539.915894 
	C592.277710,538.725220 594.097595,538.524841 595.692322,541.264282 
	C602.899902,553.645386 610.237976,565.950623 617.506226,578.296509 
	C617.826477,578.840515 617.923401,579.515991 618.233643,580.464172 
	C613.384033,583.743774 607.746887,584.580566 602.443054,586.261414 
	C598.958008,587.365784 595.318848,588.108154 591.996582,589.574097 
	C586.455078,592.019409 586.090881,596.562439 590.813782,600.446289 
	C592.989746,602.235535 595.498657,602.758545 598.252808,602.837524 
	C608.180359,603.121948 617.854004,601.787415 627.146729,598.258423 
	C630.094482,597.138977 632.086975,597.655884 634.081055,600.110718 
	C648.487366,617.846069 663.466003,635.057129 680.760681,650.100891 
	C680.986084,650.296936 681.047485,650.681580 681.216248,651.044556 
	C681.083984,652.598816 679.729248,653.127930 678.615906,653.721558 
	C674.799683,655.756226 670.860229,657.566589 667.096252,659.690247 
	C664.644592,661.073547 660.370544,661.348572 660.831848,665.058838 
	C661.235840,668.307983 664.700928,669.765198 667.786804,670.830200 
	C673.358337,672.752991 678.653259,671.285706 683.849243,669.415283 
	C688.895569,667.598694 693.406433,664.677063 697.851135,661.749634 
	C706.417419,656.107666 706.944214,648.634216 699.295288,641.779480 
	C669.532288,615.106628 644.320007,584.708984 624.187744,550.153076 
	C613.355286,531.559814 604.124023,512.168945 595.664856,492.399048 
	C592.579895,485.189453 588.958740,478.250671 584.761108,471.628082 
	C575.259888,456.638245 565.678772,455.868927 551.391724,457.809296 
	C544.437866,458.753693 537.765381,461.172028 531.644348,464.571625 
	C527.335938,466.964447 524.565430,465.843842 521.830811,462.384155 
	C511.257446,449.006989 507.283356,433.692169 509.102448,416.969208 
	C510.986267,399.651398 519.865784,386.541199 534.475891,377.126160 
	C546.103699,369.632935 557.555481,361.805298 571.219177,358.385254 
	C582.292297,355.613647 591.848755,359.484192 597.962463,369.048340 
	C604.013367,378.514252 606.276062,389.320221 608.209290,400.112000 
	C610.578552,413.338196 612.340637,426.672821 614.394592,439.956055 
	C614.827332,442.753998 615.539734,445.467010 616.800537,448.048065 
	C642.138000,499.919800 669.575073,550.559082 704.443176,596.806885 
	C714.466492,610.101562 724.117554,623.687988 735.695984,635.766968 
	C755.826843,656.768127 780.237793,670.978455 807.004944,681.622498 
	C819.994019,686.787598 833.185852,691.468933 845.649780,697.904968 
	C864.890442,707.840454 878.369873,722.298523 882.367188,744.252686 
	C886.502563,766.964905 880.171387,786.662659 865.104675,803.851807 
	C848.418762,822.888428 826.529663,833.034180 802.903015,839.990173 
	C768.652100,850.074036 733.522522,852.455383 698.114502,850.056641 
	C627.500366,845.272949 564.142761,820.411865 506.601837,779.742249 
	C494.092163,770.900513 481.844879,761.702820 469.140564,753.114136 
	C444.991180,736.787903 418.355316,727.043640 390.005737,721.317505 
	C346.540802,712.538452 303.858795,701.280823 263.697449,681.843384 
	C247.604080,674.054443 234.220718,663.173889 223.482666,648.959656 
	C212.127106,633.928040 212.897522,617.614197 219.047836,601.074646 
	C223.117630,590.130005 230.183090,581.051086 238.848984,573.224731 
	C241.776352,570.580994 244.635208,569.791443 247.380280,573.273865 
	C260.819977,590.323059 279.623657,599.008118 299.020508,607.047363 
	C332.877686,621.079895 367.322754,633.493530 402.057373,645.108093 
	C435.753876,656.375427 465.362213,674.285095 491.923004,697.795654 
	C508.872620,712.798767 525.098572,728.713013 544.112854,741.842529 
z"/>
</svg>